# 3ds Max Wavefront OBJ Exporter v0.97b - (c)2007 guruware
# File Created: 08.03.2015 20:44:18

#
# object plane
#

v  -5.4922 -0.0000 5.4922
v  -3.6614 -0.0000 5.4922
v  -3.6614 -0.0000 3.6614
v  -5.4922 -0.0000 3.6614
v  -1.8307 -0.0000 5.4922
v  -1.8307 -0.0000 3.6614
v  -3.6614 -0.0000 1.8307
v  -5.4922 -0.0000 1.8307
v  -1.8307 -0.0000 1.8307
v  0.0000 -0.0000 5.4922
v  0.0000 -0.0000 3.6614
v  1.8307 -0.0000 5.4922
v  1.8307 -0.0000 3.6614
v  0.0000 -0.0000 1.8307
v  1.8307 -0.0000 1.8307
v  -3.6614 0.0000 -0.0000
v  -5.4922 0.0000 -0.0000
v  -1.8307 0.0000 -0.0000
v  -3.6614 0.0000 -1.8307
v  -5.4922 0.0000 -1.8307
v  -1.8307 0.0000 -1.8307
v  0.0000 0.0000 -0.0000
v  1.8307 0.0000 -0.0000
v  0.0000 0.0000 -1.8307
v  1.8307 0.0000 -1.8307
v  3.6614 -0.0000 5.4922
v  3.6614 -0.0000 3.6614
v  5.4922 -0.0000 5.4922
v  5.4922 -0.0000 3.6614
v  3.6614 -0.0000 1.8307
v  5.4922 -0.0000 1.8307
v  7.3228 -0.0000 5.4922
v  7.3228 -0.0000 3.6614
v  9.1535 -0.0000 5.4922
v  9.1535 -0.0000 3.6614
v  7.3228 -0.0000 1.8307
v  9.1535 -0.0000 1.8307
v  3.6614 0.0000 -0.0000
v  5.4922 0.0000 -0.0000
v  3.6614 0.0000 -1.8307
v  5.4922 0.0000 -1.8307
v  7.3228 0.0000 -0.0000
v  9.1535 0.0000 -0.0000
v  7.3228 0.0000 -1.8307
v  9.1535 0.0000 -1.8307
v  -3.6614 0.0000 -3.6614
v  -5.4922 0.0000 -3.6614
v  -1.8307 0.0000 -3.6614
v  -3.6614 0.0000 -5.4922
v  -5.4922 0.0000 -5.4922
v  -1.8307 0.0000 -5.4922
v  0.0000 0.0000 -3.6614
v  1.8307 0.0000 -3.6614
v  0.0000 0.0000 -5.4922
v  1.8307 0.0000 -5.4922
v  -3.6614 0.0000 -7.3228
v  -5.4922 0.0000 -7.3228
v  -1.8307 0.0000 -7.3228
v  -3.6614 0.0000 -9.1535
v  -5.4922 0.0000 -9.1535
v  -1.8307 0.0000 -9.1535
v  0.0000 0.0000 -7.3228
v  1.8307 0.0000 -7.3228
v  0.0000 0.0000 -9.1535
v  1.8307 0.0000 -9.1535
v  3.6614 0.0000 -3.6614
v  5.4922 0.0000 -3.6614
v  3.6614 0.0000 -5.4922
v  5.4922 0.0000 -5.4922
v  7.3228 0.0000 -3.6614
v  9.1535 0.0000 -3.6614
v  7.3228 0.0000 -5.4922
v  9.1535 0.0000 -5.4922
v  3.6614 0.0000 -7.3228
v  5.4922 0.0000 -7.3228
v  3.6614 0.0000 -9.1535
v  5.4922 0.0000 -9.1535
v  7.3228 0.0000 -7.3228
v  9.1535 0.0000 -7.3228
v  7.3228 0.0000 -9.1535
v  9.1535 0.0000 -9.1535
v  -9.1535 0.0000 -5.4922
v  -7.3228 0.0000 -5.4922
v  -7.3228 0.0000 -7.3228
v  -9.1535 0.0000 -7.3228
v  -7.3228 0.0000 -9.1535
v  -9.1535 0.0000 -9.1535
v  -9.1535 0.0000 -1.8307
v  -7.3228 0.0000 -1.8307
v  -7.3228 0.0000 -3.6614
v  -9.1535 0.0000 -3.6614
v  -9.1535 -0.0000 1.8307
v  -7.3228 -0.0000 1.8307
v  -7.3228 0.0000 -0.0000
v  -9.1535 0.0000 -0.0000
v  -9.1535 -0.0000 5.4922
v  -7.3228 -0.0000 5.4922
v  -7.3228 -0.0000 3.6614
v  -9.1535 -0.0000 3.6614
v  5.4922 -0.0000 9.1535
v  7.3228 -0.0000 9.1535
v  7.3228 -0.0000 7.3228
v  5.4922 -0.0000 7.3228
v  9.1535 -0.0000 9.1535
v  9.1535 -0.0000 7.3228
v  1.8307 -0.0000 9.1535
v  3.6614 -0.0000 9.1535
v  3.6614 -0.0000 7.3228
v  1.8307 -0.0000 7.3228
v  -1.8307 -0.0000 9.1535
v  0.0000 -0.0000 9.1535
v  0.0000 -0.0000 7.3228
v  -1.8307 -0.0000 7.3228
v  -5.4922 -0.0000 9.1535
v  -3.6614 -0.0000 9.1535
v  -3.6614 -0.0000 7.3228
v  -5.4922 -0.0000 7.3228
v  -9.1535 -0.0000 9.1535
v  -7.3228 -0.0000 9.1535
v  -7.3228 -0.0000 7.3228
v  -9.1535 -0.0000 7.3228
# 121 vertices

vn 0.0000 1.0000 0.0000
# 1 vertex normals

vt 0.2084 0.7916 0.0000
vt 0.3056 0.7916 0.0000
vt 0.3056 0.6944 0.0000
vt 0.2084 0.6944 0.0000
vt 0.4028 0.7916 0.0000
vt 0.4028 0.6944 0.0000
vt 0.3056 0.5972 0.0000
vt 0.2084 0.5972 0.0000
vt 0.4028 0.5972 0.0000
vt 0.5000 0.7916 0.0000
vt 0.5000 0.6944 0.0000
vt 0.5972 0.7916 0.0000
vt 0.5972 0.6944 0.0000
vt 0.5000 0.5972 0.0000
vt 0.5972 0.5972 0.0000
vt 0.3056 0.5000 0.0000
vt 0.2084 0.5000 0.0000
vt 0.4028 0.5000 0.0000
vt 0.3056 0.4028 0.0000
vt 0.2084 0.4028 0.0000
vt 0.4028 0.4028 0.0000
vt 0.5000 0.5000 0.0000
vt 0.5972 0.5000 0.0000
vt 0.5000 0.4028 0.0000
vt 0.5972 0.4028 0.0000
vt 0.6944 0.7916 0.0000
vt 0.6944 0.6944 0.0000
vt 0.7916 0.7916 0.0000
vt 0.7916 0.6944 0.0000
vt 0.6944 0.5972 0.0000
vt 0.7916 0.5972 0.0000
vt 0.8888 0.7916 0.0000
vt 0.8888 0.6944 0.0000
vt 0.9860 0.7916 0.0000
vt 0.9860 0.6944 0.0000
vt 0.8888 0.5972 0.0000
vt 0.9860 0.5972 0.0000
vt 0.6944 0.5000 0.0000
vt 0.7916 0.5000 0.0000
vt 0.6944 0.4028 0.0000
vt 0.7916 0.4028 0.0000
vt 0.8888 0.5000 0.0000
vt 0.9860 0.5000 0.0000
vt 0.8888 0.4028 0.0000
vt 0.9860 0.4028 0.0000
vt 0.3056 0.3056 0.0000
vt 0.2084 0.3056 0.0000
vt 0.4028 0.3056 0.0000
vt 0.3056 0.2084 0.0000
vt 0.2084 0.2084 0.0000
vt 0.4028 0.2084 0.0000
vt 0.5000 0.3056 0.0000
vt 0.5972 0.3056 0.0000
vt 0.5000 0.2084 0.0000
vt 0.5972 0.2084 0.0000
vt 0.3056 0.1112 0.0000
vt 0.2084 0.1112 0.0000
vt 0.4028 0.1112 0.0000
vt 0.3056 0.0140 0.0000
vt 0.2084 0.0140 0.0000
vt 0.4028 0.0140 0.0000
vt 0.5000 0.1112 0.0000
vt 0.5972 0.1112 0.0000
vt 0.5000 0.0140 0.0000
vt 0.5972 0.0140 0.0000
vt 0.6944 0.3056 0.0000
vt 0.7916 0.3056 0.0000
vt 0.6944 0.2084 0.0000
vt 0.7916 0.2084 0.0000
vt 0.8888 0.3056 0.0000
vt 0.9860 0.3056 0.0000
vt 0.8888 0.2084 0.0000
vt 0.9860 0.2084 0.0000
vt 0.6944 0.1112 0.0000
vt 0.7916 0.1112 0.0000
vt 0.6944 0.0140 0.0000
vt 0.7916 0.0140 0.0000
vt 0.8888 0.1112 0.0000
vt 0.9860 0.1112 0.0000
vt 0.8888 0.0140 0.0000
vt 0.9860 0.0140 0.0000
vt 0.0140 0.2084 0.0000
vt 0.1112 0.2084 0.0000
vt 0.1112 0.1112 0.0000
vt 0.0140 0.1112 0.0000
vt 0.1112 0.0140 0.0000
vt 0.0140 0.0140 0.0000
vt 0.0140 0.4028 0.0000
vt 0.1112 0.4028 0.0000
vt 0.1112 0.3056 0.0000
vt 0.0140 0.3056 0.0000
vt 0.0140 0.5972 0.0000
vt 0.1112 0.5972 0.0000
vt 0.1112 0.5000 0.0000
vt 0.0140 0.5000 0.0000
vt 0.0140 0.7916 0.0000
vt 0.1112 0.7916 0.0000
vt 0.1112 0.6944 0.0000
vt 0.0140 0.6944 0.0000
vt 0.7916 0.9860 0.0000
vt 0.8888 0.9860 0.0000
vt 0.8888 0.8888 0.0000
vt 0.7916 0.8888 0.0000
vt 0.9860 0.9860 0.0000
vt 0.9860 0.8888 0.0000
vt 0.5972 0.9860 0.0000
vt 0.6944 0.9860 0.0000
vt 0.6944 0.8888 0.0000
vt 0.5972 0.8888 0.0000
vt 0.4028 0.9860 0.0000
vt 0.5000 0.9860 0.0000
vt 0.5000 0.8888 0.0000
vt 0.4028 0.8888 0.0000
vt 0.2084 0.9860 0.0000
vt 0.3056 0.9860 0.0000
vt 0.3056 0.8888 0.0000
vt 0.2084 0.8888 0.0000
vt 0.0140 0.9860 0.0000
vt 0.1112 0.9860 0.0000
vt 0.1112 0.8888 0.0000
vt 0.0140 0.8888 0.0000
# 121 texture coords

g plane
f 1/1/1 2/2/1 3/3/1 
f 3/3/1 4/4/1 1/1/1 
f 2/2/1 5/5/1 6/6/1 
f 6/6/1 3/3/1 2/2/1 
f 4/4/1 3/3/1 7/7/1 
f 7/7/1 8/8/1 4/4/1 
f 3/3/1 6/6/1 9/9/1 
f 9/9/1 7/7/1 3/3/1 
f 5/5/1 10/10/1 11/11/1 
f 11/11/1 6/6/1 5/5/1 
f 10/10/1 12/12/1 13/13/1 
f 13/13/1 11/11/1 10/10/1 
f 6/6/1 11/11/1 14/14/1 
f 14/14/1 9/9/1 6/6/1 
f 11/11/1 13/13/1 15/15/1 
f 15/15/1 14/14/1 11/11/1 
f 8/8/1 7/7/1 16/16/1 
f 16/16/1 17/17/1 8/8/1 
f 7/7/1 9/9/1 18/18/1 
f 18/18/1 16/16/1 7/7/1 
f 17/17/1 16/16/1 19/19/1 
f 19/19/1 20/20/1 17/17/1 
f 16/16/1 18/18/1 21/21/1 
f 21/21/1 19/19/1 16/16/1 
f 9/9/1 14/14/1 22/22/1 
f 22/22/1 18/18/1 9/9/1 
f 14/14/1 15/15/1 23/23/1 
f 23/23/1 22/22/1 14/14/1 
f 18/18/1 22/22/1 24/24/1 
f 24/24/1 21/21/1 18/18/1 
f 22/22/1 23/23/1 25/25/1 
f 25/25/1 24/24/1 22/22/1 
f 12/12/1 26/26/1 27/27/1 
f 27/27/1 13/13/1 12/12/1 
f 26/26/1 28/28/1 29/29/1 
f 29/29/1 27/27/1 26/26/1 
f 13/13/1 27/27/1 30/30/1 
f 30/30/1 15/15/1 13/13/1 
f 27/27/1 29/29/1 31/31/1 
f 31/31/1 30/30/1 27/27/1 
f 28/28/1 32/32/1 33/33/1 
f 33/33/1 29/29/1 28/28/1 
f 32/32/1 34/34/1 35/35/1 
f 35/35/1 33/33/1 32/32/1 
f 29/29/1 33/33/1 36/36/1 
f 36/36/1 31/31/1 29/29/1 
f 33/33/1 35/35/1 37/37/1 
f 37/37/1 36/36/1 33/33/1 
f 15/15/1 30/30/1 38/38/1 
f 38/38/1 23/23/1 15/15/1 
f 30/30/1 31/31/1 39/39/1 
f 39/39/1 38/38/1 30/30/1 
f 23/23/1 38/38/1 40/40/1 
f 40/40/1 25/25/1 23/23/1 
f 38/38/1 39/39/1 41/41/1 
f 41/41/1 40/40/1 38/38/1 
f 31/31/1 36/36/1 42/42/1 
f 42/42/1 39/39/1 31/31/1 
f 36/36/1 37/37/1 43/43/1 
f 43/43/1 42/42/1 36/36/1 
f 39/39/1 42/42/1 44/44/1 
f 44/44/1 41/41/1 39/39/1 
f 42/42/1 43/43/1 45/45/1 
f 45/45/1 44/44/1 42/42/1 
f 20/20/1 19/19/1 46/46/1 
f 46/46/1 47/47/1 20/20/1 
f 19/19/1 21/21/1 48/48/1 
f 48/48/1 46/46/1 19/19/1 
f 47/47/1 46/46/1 49/49/1 
f 49/49/1 50/50/1 47/47/1 
f 46/46/1 48/48/1 51/51/1 
f 51/51/1 49/49/1 46/46/1 
f 21/21/1 24/24/1 52/52/1 
f 52/52/1 48/48/1 21/21/1 
f 24/24/1 25/25/1 53/53/1 
f 53/53/1 52/52/1 24/24/1 
f 48/48/1 52/52/1 54/54/1 
f 54/54/1 51/51/1 48/48/1 
f 52/52/1 53/53/1 55/55/1 
f 55/55/1 54/54/1 52/52/1 
f 50/50/1 49/49/1 56/56/1 
f 56/56/1 57/57/1 50/50/1 
f 49/49/1 51/51/1 58/58/1 
f 58/58/1 56/56/1 49/49/1 
f 57/57/1 56/56/1 59/59/1 
f 59/59/1 60/60/1 57/57/1 
f 56/56/1 58/58/1 61/61/1 
f 61/61/1 59/59/1 56/56/1 
f 51/51/1 54/54/1 62/62/1 
f 62/62/1 58/58/1 51/51/1 
f 54/54/1 55/55/1 63/63/1 
f 63/63/1 62/62/1 54/54/1 
f 58/58/1 62/62/1 64/64/1 
f 64/64/1 61/61/1 58/58/1 
f 62/62/1 63/63/1 65/65/1 
f 65/65/1 64/64/1 62/62/1 
f 25/25/1 40/40/1 66/66/1 
f 66/66/1 53/53/1 25/25/1 
f 40/40/1 41/41/1 67/67/1 
f 67/67/1 66/66/1 40/40/1 
f 53/53/1 66/66/1 68/68/1 
f 68/68/1 55/55/1 53/53/1 
f 66/66/1 67/67/1 69/69/1 
f 69/69/1 68/68/1 66/66/1 
f 41/41/1 44/44/1 70/70/1 
f 70/70/1 67/67/1 41/41/1 
f 44/44/1 45/45/1 71/71/1 
f 71/71/1 70/70/1 44/44/1 
f 67/67/1 70/70/1 72/72/1 
f 72/72/1 69/69/1 67/67/1 
f 70/70/1 71/71/1 73/73/1 
f 73/73/1 72/72/1 70/70/1 
f 55/55/1 68/68/1 74/74/1 
f 74/74/1 63/63/1 55/55/1 
f 68/68/1 69/69/1 75/75/1 
f 75/75/1 74/74/1 68/68/1 
f 63/63/1 74/74/1 76/76/1 
f 76/76/1 65/65/1 63/63/1 
f 74/74/1 75/75/1 77/77/1 
f 77/77/1 76/76/1 74/74/1 
f 69/69/1 72/72/1 78/78/1 
f 78/78/1 75/75/1 69/69/1 
f 72/72/1 73/73/1 79/79/1 
f 79/79/1 78/78/1 72/72/1 
f 75/75/1 78/78/1 80/80/1 
f 80/80/1 77/77/1 75/75/1 
f 78/78/1 79/79/1 81/81/1 
f 81/81/1 80/80/1 78/78/1 
f 82/82/1 83/83/1 84/84/1 
f 84/84/1 85/85/1 82/82/1 
f 83/83/1 50/50/1 57/57/1 
f 57/57/1 84/84/1 83/83/1 
f 85/85/1 84/84/1 86/86/1 
f 86/86/1 87/87/1 85/85/1 
f 84/84/1 57/57/1 60/60/1 
f 60/60/1 86/86/1 84/84/1 
f 88/88/1 89/89/1 90/90/1 
f 90/90/1 91/91/1 88/88/1 
f 89/89/1 20/20/1 47/47/1 
f 47/47/1 90/90/1 89/89/1 
f 91/91/1 90/90/1 83/83/1 
f 83/83/1 82/82/1 91/91/1 
f 90/90/1 47/47/1 50/50/1 
f 50/50/1 83/83/1 90/90/1 
f 92/92/1 93/93/1 94/94/1 
f 94/94/1 95/95/1 92/92/1 
f 93/93/1 8/8/1 17/17/1 
f 17/17/1 94/94/1 93/93/1 
f 95/95/1 94/94/1 89/89/1 
f 89/89/1 88/88/1 95/95/1 
f 94/94/1 17/17/1 20/20/1 
f 20/20/1 89/89/1 94/94/1 
f 96/96/1 97/97/1 98/98/1 
f 98/98/1 99/99/1 96/96/1 
f 97/97/1 1/1/1 4/4/1 
f 4/4/1 98/98/1 97/97/1 
f 99/99/1 98/98/1 93/93/1 
f 93/93/1 92/92/1 99/99/1 
f 98/98/1 4/4/1 8/8/1 
f 8/8/1 93/93/1 98/98/1 
f 100/100/1 101/101/1 102/102/1 
f 102/102/1 103/103/1 100/100/1 
f 101/101/1 104/104/1 105/105/1 
f 105/105/1 102/102/1 101/101/1 
f 103/103/1 102/102/1 32/32/1 
f 32/32/1 28/28/1 103/103/1 
f 102/102/1 105/105/1 34/34/1 
f 34/34/1 32/32/1 102/102/1 
f 106/106/1 107/107/1 108/108/1 
f 108/108/1 109/109/1 106/106/1 
f 107/107/1 100/100/1 103/103/1 
f 103/103/1 108/108/1 107/107/1 
f 109/109/1 108/108/1 26/26/1 
f 26/26/1 12/12/1 109/109/1 
f 108/108/1 103/103/1 28/28/1 
f 28/28/1 26/26/1 108/108/1 
f 110/110/1 111/111/1 112/112/1 
f 112/112/1 113/113/1 110/110/1 
f 111/111/1 106/106/1 109/109/1 
f 109/109/1 112/112/1 111/111/1 
f 113/113/1 112/112/1 10/10/1 
f 10/10/1 5/5/1 113/113/1 
f 112/112/1 109/109/1 12/12/1 
f 12/12/1 10/10/1 112/112/1 
f 114/114/1 115/115/1 116/116/1 
f 116/116/1 117/117/1 114/114/1 
f 115/115/1 110/110/1 113/113/1 
f 113/113/1 116/116/1 115/115/1 
f 117/117/1 116/116/1 2/2/1 
f 2/2/1 1/1/1 117/117/1 
f 116/116/1 113/113/1 5/5/1 
f 5/5/1 2/2/1 116/116/1 
f 118/118/1 119/119/1 120/120/1 
f 120/120/1 121/121/1 118/118/1 
f 119/119/1 114/114/1 117/117/1 
f 117/117/1 120/120/1 119/119/1 
f 121/121/1 120/120/1 97/97/1 
f 97/97/1 96/96/1 121/121/1 
f 120/120/1 117/117/1 1/1/1 
f 1/1/1 97/97/1 120/120/1 
# 200 faces

