# Blender 4.0.2
# www.blender.org
mtllib SpaceStationRocketBase.mtl
o RocketBase
v 11.906281 0.000000 3.190280
v 7.004648 2.129014 1.876890
v -3.190279 0.000000 11.906280
v -1.876890 2.129014 7.004649
v 3.190279 0.000000 -11.906279
v 1.876890 2.129014 -7.004648
v -11.906279 0.000000 -3.190279
v -7.004648 2.129014 -1.876890
v 8.896864 1.064507 2.383907
v -2.383908 1.064507 8.896863
v -8.896863 1.064507 -2.383907
v 2.383908 1.064507 -8.896862
v -3.190279 -6.886767 11.906280
v 11.906281 -6.886767 3.190280
v -11.906279 -6.886767 -3.190279
v 3.190279 -6.886767 -11.906279
vn -0.3047 -0.7929 -0.5277
vn 0.3047 -0.7929 0.5277
vn -0.5000 -0.0000 -0.8660
vn 0.2175 -0.9004 0.3768
vn -0.2175 -0.9004 -0.3768
vn 0.8660 -0.0000 -0.5000
vn 0.5000 -0.0000 0.8660
vn -0.8660 -0.0000 0.5000
vn 0.3768 -0.9004 -0.2175
vn -0.3768 -0.9004 0.2175
vn -0.0000 -1.0000 -0.0000
vn -0.5277 -0.7929 0.3047
vn 0.5277 -0.7929 -0.3047
vt 0.275391 0.974802
vt 0.284716 0.956151
vt 0.284716 0.974802
vt 0.275391 0.937500
vt 0.284716 0.918849
vt 0.284716 0.937500
vt 0.294042 0.956151
vt 0.294042 0.974802
vt 0.294042 0.918849
vt 0.294042 0.937500
vt 0.294042 0.900198
vt 0.284716 0.900198
vt 0.256740 0.918849
vt 0.275391 0.918849
vt 0.275391 0.900198
vt 0.275391 0.956151
vt 0.256740 0.937500
s 0
usemtl Material.001
f 2/1/1 9/3/1 10/2/1
f 8/4/2 11/6/2 12/5/2
f 3/7/3 1/8/3 14/8/3
f 11/6/4 7/10/4 5/9/4
f 9/3/5 1/8/5 3/7/5
f 7/10/6 3/7/6 13/7/6
f 5/9/7 7/10/7 15/10/7
f 1/11/8 5/9/8 16/9/8
f 11/6/9 10/2/9 3/7/9
f 9/12/10 12/5/10 5/9/10
f 8/4/11 6/14/11 2/13/11
f 2/15/12 6/14/12 12/5/12
f 8/4/13 4/16/13 10/2/13
f 2/1/1 10/2/1 4/16/1
f 8/4/2 12/5/2 6/14/2
f 3/7/3 14/8/3 13/7/3
f 11/6/4 5/9/4 12/5/4
f 9/3/5 3/7/5 10/2/5
f 7/10/6 13/7/6 15/10/6
f 5/9/7 15/10/7 16/9/7
f 1/11/8 16/9/8 14/11/8
f 11/6/9 3/7/9 7/10/9
f 9/12/10 5/9/10 1/11/10
f 8/4/11 2/13/11 4/17/11
f 2/15/12 12/5/12 9/12/12
f 8/4/13 10/2/13 11/6/13
