# Blender v3.2.0 OBJ File: ''
# www.blender.org
mtllib SpaceStationSolarPanels.mtl
o SolarPanels
v 10.004890 0.968225 -0.389932
v 9.964195 0.857383 -0.366436
v 8.543460 1.552879 0.453825
v 7.075108 1.409092 -2.767763
v 8.377948 1.409092 -0.511174
v 8.377948 0.325912 -0.511174
v 6.322149 1.552880 -3.393598
v 7.742886 0.857384 -4.213860
v 7.783581 0.968226 -4.237356
v 6.362844 1.663721 -3.417094
v 8.584154 1.663720 0.430329
v 9.211237 1.001171 -0.992274
v 7.908397 1.001171 -3.248860
v 9.211237 -0.082009 -0.992274
v 7.075108 0.325912 -2.767763
v 7.908397 -0.082008 -3.248860
v 7.561450 0.968226 -4.622097
v 7.520754 0.857384 -4.598602
v 6.100019 1.552880 -3.778340
v 4.631667 1.409093 -6.999927
v 5.934507 1.409093 -4.743339
v 5.934507 0.325913 -4.743339
v 3.878708 1.552880 -7.625767
v 5.299444 0.857384 -8.446028
v 5.340139 0.968226 -8.469522
v 3.919403 1.663721 -7.649261
v 5.464956 1.001172 -7.481027
v 6.767796 1.001172 -5.224438
v 6.767796 -0.082008 -5.224438
v 4.631667 0.325913 -6.999927
v 5.464956 -0.082008 -7.481027
v 7.228171 0.968225 1.213206
v 7.187476 0.857383 1.236702
v 5.766740 1.552879 2.056963
v 4.298388 1.409092 -1.164622
v 5.601229 1.409092 1.091964
v 5.601229 0.325912 1.091964
v 3.545429 1.552879 -1.790460
v 4.966166 0.857383 -2.610721
v 5.006861 0.968225 -2.634217
v 3.586124 1.663720 -1.813954
v 6.434517 1.001171 0.610866
v 5.131677 1.001171 -1.645722
v 6.434517 -0.082009 0.610866
v 4.298388 0.325912 -1.164622
v 5.131677 -0.082009 -1.645722
v 4.784730 0.968225 -3.018960
v 4.744035 0.857383 -2.995463
v 3.323299 1.552879 -2.175202
v 1.854947 1.409093 -5.396786
v 3.157788 1.409092 -3.140201
v 3.157788 0.325913 -3.140201
v 1.101988 1.552880 -6.022625
v 2.522724 0.857384 -6.842887
v 2.563420 0.968226 -6.866382
v 1.142683 1.663721 -6.046120
v 2.688236 1.001172 -5.877886
v 3.991076 1.001172 -3.621301
v 3.991076 -0.082008 -3.621301
v 1.854947 0.325913 -5.396786
v 2.688236 -0.082008 -5.877886
v 4.451451 0.968225 2.816346
v 4.410756 0.857383 2.839842
v 2.990020 1.552878 3.660104
v 1.521668 1.409092 0.438516
v 2.824509 1.409091 2.695105
v 2.824509 0.325912 2.695105
v 0.768710 1.552879 -0.187319
v 2.189445 0.857383 -1.007581
v 2.230141 0.968225 -1.031077
v 3.030715 1.663719 3.636608
v 0.809405 1.663720 -0.210815
v 3.657797 1.001171 2.214005
v 2.354957 1.001171 -0.042581
v 3.657797 -0.082009 2.214005
v 1.521668 0.325912 0.438516
v 2.354957 -0.082009 -0.042581
v 2.008010 0.968225 -1.415819
v 1.967314 0.857383 -1.392325
v 0.546579 1.552879 -0.572061
v -0.921773 1.409093 -3.793649
v 0.381067 1.409092 -1.537061
v 0.381067 0.325912 -1.537061
v -1.674731 1.552880 -4.419485
v -0.253996 0.857384 -5.239747
v -0.213300 0.968226 -5.263246
v -1.634036 1.663721 -4.442980
v 0.587275 1.663720 -0.595558
v -0.088485 1.001172 -4.274749
v 1.214356 1.001171 -2.018161
v 1.214356 -0.082009 -2.018161
v -0.921773 0.325913 -3.793649
v -0.088485 -0.082008 -4.274749
v 1.674732 0.968224 4.419485
v 1.634037 0.857382 4.442981
v 0.213301 1.552878 5.263242
v -1.255051 1.409092 2.041657
v 0.047791 1.409091 4.298243
v 0.047791 0.325911 4.298243
v -2.008009 1.552879 1.415819
v -0.587273 0.857383 0.595558
v -0.546578 0.968225 0.572061
v -1.967314 1.663720 1.392325
v -0.421762 1.001171 1.560557
v 0.881078 1.001170 3.817144
v 0.881078 -0.082010 3.817144
v -1.255051 0.325912 2.041657
v -0.421762 -0.082009 1.560557
v -0.768710 0.968225 0.187319
v -0.809405 0.857383 0.210815
v -2.230139 1.552879 1.031077
v -3.698492 1.409092 -2.190509
v -2.395651 1.409092 0.066078
v -2.395651 0.325912 0.066078
v -4.451450 1.552879 -2.816346
v -3.030715 0.857384 -3.636608
v -2.990019 0.968226 -3.660104
v -4.410756 1.663720 -2.839842
v -2.865203 1.001171 -2.671608
v -1.562363 1.001171 -0.415022
v -1.562363 -0.082009 -0.415022
v -3.698492 0.325912 -2.190509
v -2.865203 -0.082009 -2.671608
v -1.101987 0.968224 6.022625
v -1.142683 0.857382 6.046121
v -2.563419 1.552878 6.866384
v -4.031770 1.409091 3.644796
v -2.728930 1.409091 5.901383
v -2.728930 0.325911 5.901383
v -4.784729 1.552878 3.018960
v -3.363994 0.857383 2.198698
v -3.323298 0.968225 2.175202
v -4.744034 1.663720 2.995463
v -2.522723 1.663719 6.842886
v -1.895642 1.001170 5.420283
v -3.198482 1.001171 3.163697
v -1.895642 -0.082010 5.420283
v -4.031770 0.325911 3.644796
v -3.198482 -0.082010 3.163697
v -3.545428 0.968225 1.790460
v -3.586126 0.857383 1.813956
v -5.006860 1.552878 2.634217
v -6.475212 1.409092 -0.587370
v -5.172371 1.409092 1.669218
v -5.172371 0.325912 1.669218
v -7.228170 1.552879 -1.213208
v -5.807435 0.857383 -2.033469
v -5.766738 0.968225 -2.056963
v -7.187475 1.663720 -1.236702
v -5.641924 1.001171 -1.068468
v -4.339083 1.001171 1.188118
v -4.339083 -0.082009 1.188118
v -6.475212 0.325912 -0.587370
v -5.641924 -0.082009 -1.068468
v -3.878707 0.968224 7.625764
v -3.919403 0.857382 7.649260
v -5.340139 1.552878 8.469522
v -6.808492 1.409091 5.247935
v -5.505651 1.409091 7.504523
v -5.505651 0.325911 7.504523
v -7.561450 1.552878 4.622099
v -6.140714 0.857382 3.801836
v -6.100018 0.968224 3.778341
v -7.520755 1.663719 4.598605
v -5.975203 1.001170 4.766836
v -4.672362 1.001170 7.023423
v -4.672362 -0.082010 7.023423
v -6.808492 0.325911 5.247935
v -5.975203 -0.082010 4.766836
v -6.322148 0.968224 3.393598
v -6.362844 0.857382 3.417094
v -7.783580 1.552878 4.237358
v -9.251932 1.409092 1.015770
v -7.949092 1.409091 3.272357
v -7.949092 0.325911 3.272357
v -10.004890 1.552879 0.389932
v -8.584154 0.857383 -0.430329
v -8.543459 0.968225 -0.453825
v -9.964195 1.663720 0.366438
v -7.115803 1.001171 2.791258
v -8.418645 1.001171 0.534670
v -7.115803 -0.082009 2.791258
v -9.251932 0.325912 1.015770
v -8.418645 -0.082009 0.534670
v 6.140714 1.663721 -3.801836
v 5.807435 1.663720 2.033469
v 3.363994 1.663720 -2.198696
v 0.253996 1.663719 5.239748
v -2.189445 1.663720 1.007583
v -4.966165 1.663720 2.610721
v -5.299444 1.663719 8.446027
v -7.742885 1.663719 4.213861
vt 0.586146 0.892823
vt 0.608744 0.898730
vt 0.586146 0.898730
vt 0.297431 0.941184
vt 0.297431 0.908350
vt 0.297431 0.908350
vt 0.608744 0.954710
vt 0.586146 0.960618
vt 0.586146 0.954710
vt 0.016649 0.094515
vt 0.220219 0.240214
vt 0.016649 0.240214
vt 0.563547 0.960618
vt 0.563547 0.954710
vt 0.631342 0.960618
vt 0.608744 0.960618
vt 0.604072 0.910304
vt 0.590818 0.910304
vt 0.604072 0.943137
vt 0.590818 0.943137
vt 0.284177 0.908350
vt 0.284177 0.908350
vt 0.284177 0.941184
vt 0.297431 0.941184
vt 0.284177 0.941184
vt 0.586146 0.892823
vt 0.608744 0.898730
vt 0.586146 0.898730
vt 0.297431 0.941184
vt 0.297431 0.908350
vt 0.297431 0.908350
vt 0.608744 0.954710
vt 0.586146 0.960618
vt 0.586146 0.954710
vt 0.016649 0.094515
vt 0.220219 0.240214
vt 0.016649 0.240214
vt 0.563547 0.954710
vt 0.563547 0.960618
vt 0.631342 0.954710
vt 0.608744 0.960618
vt 0.604072 0.910304
vt 0.590818 0.943137
vt 0.590818 0.910304
vt 0.604072 0.943137
vt 0.284177 0.908350
vt 0.284177 0.908350
vt 0.284177 0.941184
vt 0.297431 0.941184
vt 0.284177 0.941184
vt 0.586146 0.892823
vt 0.608744 0.898730
vt 0.586146 0.898730
vt 0.297431 0.941184
vt 0.297431 0.908350
vt 0.297431 0.908350
vt 0.608744 0.954710
vt 0.586146 0.960618
vt 0.586146 0.954710
vt 0.016649 0.094515
vt 0.220219 0.240214
vt 0.016649 0.240214
vt 0.563547 0.960618
vt 0.563547 0.954710
vt 0.631342 0.954710
vt 0.608744 0.960618
vt 0.590818 0.910304
vt 0.604072 0.910304
vt 0.590818 0.943137
vt 0.604072 0.943137
vt 0.284177 0.908350
vt 0.284177 0.908350
vt 0.284177 0.941184
vt 0.297431 0.941184
vt 0.284177 0.941184
vt 0.586146 0.892823
vt 0.608744 0.898730
vt 0.586146 0.898730
vt 0.297431 0.941184
vt 0.297431 0.908350
vt 0.297431 0.908350
vt 0.608744 0.954710
vt 0.586146 0.960618
vt 0.586146 0.954710
vt 0.016649 0.094515
vt 0.220219 0.240214
vt 0.016649 0.240214
vt 0.563547 0.954710
vt 0.563547 0.960618
vt 0.631342 0.954710
vt 0.608744 0.960618
vt 0.604072 0.910304
vt 0.590818 0.943137
vt 0.590818 0.910304
vt 0.604072 0.943137
vt 0.284177 0.908350
vt 0.284177 0.908350
vt 0.284177 0.941184
vt 0.297431 0.941184
vt 0.284177 0.941184
vt 0.586146 0.892823
vt 0.608744 0.898730
vt 0.586146 0.898730
vt 0.297431 0.941184
vt 0.297431 0.908350
vt 0.297431 0.908350
vt 0.608744 0.954710
vt 0.586146 0.960618
vt 0.586146 0.954710
vt 0.016649 0.240214
vt 0.220219 0.094515
vt 0.220219 0.240214
vt 0.563547 0.960618
vt 0.563547 0.954710
vt 0.631342 0.960618
vt 0.608744 0.960618
vt 0.604072 0.910304
vt 0.590818 0.910304
vt 0.604072 0.943137
vt 0.590818 0.943137
vt 0.284177 0.908350
vt 0.284177 0.908350
vt 0.284177 0.941184
vt 0.297431 0.941184
vt 0.284177 0.941184
vt 0.586146 0.892823
vt 0.608744 0.898730
vt 0.586146 0.898730
vt 0.297431 0.941184
vt 0.297431 0.908350
vt 0.297431 0.908350
vt 0.608744 0.954710
vt 0.586146 0.960618
vt 0.586146 0.954710
vt 0.016649 0.094515
vt 0.220219 0.240214
vt 0.016649 0.240214
vt 0.563547 0.960618
vt 0.563547 0.954710
vt 0.631342 0.960618
vt 0.608744 0.960618
vt 0.604072 0.910304
vt 0.590818 0.943137
vt 0.590818 0.910304
vt 0.604072 0.943137
vt 0.284177 0.908350
vt 0.284177 0.908350
vt 0.284177 0.941184
vt 0.297431 0.941184
vt 0.284177 0.941184
vt 0.586146 0.892823
vt 0.608744 0.898730
vt 0.586146 0.898730
vt 0.297431 0.941184
vt 0.297431 0.908350
vt 0.297431 0.908350
vt 0.608744 0.954710
vt 0.586146 0.960618
vt 0.586146 0.954710
vt 0.016649 0.094515
vt 0.220219 0.240214
vt 0.016649 0.240214
vt 0.563547 0.960618
vt 0.563547 0.954710
vt 0.631342 0.954710
vt 0.608744 0.960618
vt 0.604072 0.910304
vt 0.590818 0.943137
vt 0.590818 0.910304
vt 0.604072 0.943137
vt 0.284177 0.908350
vt 0.284177 0.908350
vt 0.284177 0.941184
vt 0.297431 0.941184
vt 0.284177 0.941184
vt 0.586146 0.892823
vt 0.608744 0.898730
vt 0.586146 0.898730
vt 0.297431 0.941184
vt 0.297431 0.908350
vt 0.297431 0.908350
vt 0.608744 0.954710
vt 0.586146 0.960618
vt 0.586146 0.954710
vt 0.016649 0.094515
vt 0.220219 0.240214
vt 0.016649 0.240214
vt 0.563547 0.960618
vt 0.563547 0.954710
vt 0.631342 0.954710
vt 0.608744 0.960618
vt 0.604072 0.910304
vt 0.590818 0.943137
vt 0.590818 0.910304
vt 0.604072 0.943137
vt 0.284177 0.908350
vt 0.284177 0.908350
vt 0.284177 0.941184
vt 0.297431 0.941184
vt 0.284177 0.941184
vt 0.586146 0.892823
vt 0.608744 0.898730
vt 0.586146 0.898730
vt 0.297431 0.941184
vt 0.297431 0.908350
vt 0.297431 0.908350
vt 0.608744 0.954710
vt 0.586146 0.960618
vt 0.586146 0.954710
vt 0.016649 0.094515
vt 0.220219 0.240214
vt 0.016649 0.240214
vt 0.563547 0.960618
vt 0.563547 0.954710
vt 0.631342 0.960618
vt 0.608744 0.960618
vt 0.604072 0.910304
vt 0.590818 0.910304
vt 0.604072 0.943137
vt 0.590818 0.943137
vt 0.284177 0.908350
vt 0.284177 0.908350
vt 0.284177 0.941184
vt 0.297431 0.941184
vt 0.284177 0.941184
vt 0.586146 0.892823
vt 0.608744 0.898730
vt 0.586146 0.898730
vt 0.297431 0.941184
vt 0.297431 0.908350
vt 0.297431 0.908350
vt 0.608744 0.954710
vt 0.586146 0.960618
vt 0.586146 0.954710
vt 0.016649 0.094515
vt 0.220219 0.240214
vt 0.016649 0.240214
vt 0.563547 0.960618
vt 0.563547 0.954710
vt 0.631342 0.954710
vt 0.608744 0.960618
vt 0.604072 0.910304
vt 0.590818 0.943137
vt 0.590818 0.910304
vt 0.604072 0.943137
vt 0.284177 0.908350
vt 0.284177 0.908350
vt 0.284177 0.941184
vt 0.297431 0.941184
vt 0.284177 0.941184
vt 0.586146 0.892823
vt 0.608744 0.898730
vt 0.586146 0.898730
vt 0.297431 0.941184
vt 0.297431 0.908350
vt 0.297431 0.908350
vt 0.608744 0.954710
vt 0.586146 0.960618
vt 0.586146 0.954710
vt 0.016649 0.094515
vt 0.220219 0.240214
vt 0.016649 0.240214
vt 0.563547 0.954710
vt 0.563547 0.960618
vt 0.631342 0.954710
vt 0.608744 0.960618
vt 0.604072 0.910304
vt 0.590818 0.943137
vt 0.590818 0.910304
vt 0.604072 0.943137
vt 0.284177 0.908350
vt 0.284177 0.908350
vt 0.284177 0.941184
vt 0.297431 0.941184
vt 0.284177 0.941184
vt 0.586146 0.892823
vt 0.608744 0.898730
vt 0.586146 0.898730
vt 0.297431 0.941184
vt 0.297431 0.908350
vt 0.297431 0.908350
vt 0.608744 0.954710
vt 0.586146 0.960618
vt 0.586146 0.954710
vt 0.016649 0.094515
vt 0.220219 0.240214
vt 0.016649 0.240214
vt 0.563547 0.960618
vt 0.563547 0.954710
vt 0.631342 0.954710
vt 0.608744 0.960618
vt 0.604072 0.910304
vt 0.590818 0.910304
vt 0.604072 0.943137
vt 0.590818 0.943137
vt 0.284177 0.908350
vt 0.284177 0.908350
vt 0.284177 0.941184
vt 0.297431 0.941184
vt 0.284177 0.941184
vt 0.608744 0.892823
vt 0.220219 0.094515
vt 0.631342 0.954710
vt 0.608744 0.892823
vt 0.220219 0.094515
vt 0.631342 0.960618
vt 0.608744 0.892823
vt 0.220219 0.094515
vt 0.631342 0.960618
vt 0.608744 0.892823
vt 0.220219 0.094515
vt 0.631342 0.960618
vt 0.608744 0.892823
vt 0.016649 0.094515
vt 0.631342 0.954710
vt 0.608744 0.892823
vt 0.220219 0.094515
vt 0.631342 0.954710
vt 0.608744 0.892823
vt 0.220219 0.094515
vt 0.631342 0.960618
vt 0.608744 0.892823
vt 0.220219 0.094515
vt 0.631342 0.960618
vt 0.608744 0.892823
vt 0.220219 0.094515
vt 0.631342 0.954710
vt 0.608744 0.892823
vt 0.220219 0.094515
vt 0.631342 0.960618
vt 0.608744 0.892823
vt 0.220219 0.094515
vt 0.631342 0.960618
vt 0.608744 0.892823
vt 0.220219 0.094515
vt 0.631342 0.960618
vn 0.5000 0.0000 0.8660
vn -0.8660 0.0000 0.5000
vn -0.5000 -0.0000 -0.8660
vn 0.3380 0.9207 -0.1952
vn 0.7973 -0.3903 -0.4603
vn -0.7973 0.3903 0.4603
vn -0.3380 -0.9207 0.1952
vn 0.8660 0.0000 -0.5000
usemtl Material.007
s 1
f 1/1/1 3/2/1 2/3/1
f 4/4/2 6/5/2 5/6/2
f 7/7/3 9/8/3 8/9/3
f 10/10/4 1/11/4 9/12/4
f 8/9/5 1/13/5 2/14/5
f 7/7/6 11/15/6 10/16/6
f 5/17/7 2/3/7 3/2/7
f 12/18/7 8/9/7 2/3/7
f 5/17/7 7/7/7 4/19/7
f 4/19/7 8/9/7 13/20/7
f 12/21/1 6/5/1 14/22/1
f 13/23/3 15/24/3 4/4/3
f 12/21/8 16/25/8 13/23/8
f 17/26/1 19/27/1 18/28/1
f 20/29/2 22/30/2 21/31/2
f 23/32/3 25/33/3 24/34/3
f 26/35/4 17/36/4 25/37/4
f 18/38/5 25/33/5 17/39/5
f 19/40/6 26/41/6 23/32/6
f 21/42/7 18/28/7 19/27/7
f 27/43/7 18/28/7 28/44/7
f 20/45/7 19/27/7 23/32/7
f 20/45/7 24/34/7 27/43/7
f 28/46/1 22/30/1 29/47/1
f 27/48/3 30/49/3 20/29/3
f 28/46/8 31/50/8 27/48/8
f 32/51/1 34/52/1 33/53/1
f 35/54/2 37/55/2 36/56/2
f 38/57/3 40/58/3 39/59/3
f 41/60/4 32/61/4 40/62/4
f 39/59/5 32/63/5 33/64/5
f 34/65/6 41/66/6 38/57/6
f 42/67/7 34/52/7 36/68/7
f 43/69/7 33/53/7 42/67/7
f 35/70/7 34/52/7 38/57/7
f 35/70/7 39/59/7 43/69/7
f 42/71/1 37/55/1 44/72/1
f 43/73/3 45/74/3 35/54/3
f 42/71/8 46/75/8 43/73/8
f 47/76/1 49/77/1 48/78/1
f 50/79/2 52/80/2 51/81/2
f 53/82/3 55/83/3 54/84/3
f 56/85/4 47/86/4 55/87/4
f 48/88/5 55/83/5 47/89/5
f 49/90/6 56/91/6 53/82/6
f 51/92/7 48/78/7 49/77/7
f 57/93/7 48/78/7 58/94/7
f 50/95/7 49/77/7 53/82/7
f 50/95/7 54/84/7 57/93/7
f 58/96/1 52/80/1 59/97/1
f 57/98/3 60/99/3 50/79/3
f 58/96/8 61/100/8 57/98/8
f 62/101/1 64/102/1 63/103/1
f 65/104/2 67/105/2 66/106/2
f 68/107/3 70/108/3 69/109/3
f 70/110/4 71/111/4 62/112/4
f 69/109/5 62/113/5 63/114/5
f 68/107/6 71/115/6 72/116/6
f 66/117/7 63/103/7 64/102/7
f 73/118/7 69/109/7 63/103/7
f 66/117/7 68/107/7 65/119/7
f 65/119/7 69/109/7 74/120/7
f 73/121/1 67/105/1 75/122/1
f 74/123/3 76/124/3 65/104/3
f 73/121/8 77/125/8 74/123/8
f 78/126/1 80/127/1 79/128/1
f 81/129/2 83/130/2 82/131/2
f 84/132/3 86/133/3 85/134/3
f 87/135/4 78/136/4 86/137/4
f 85/134/5 78/138/5 79/139/5
f 84/132/6 88/140/6 87/141/6
f 82/142/7 79/128/7 80/127/7
f 89/143/7 79/128/7 90/144/7
f 82/142/7 84/132/7 81/145/7
f 81/145/7 85/134/7 89/143/7
f 90/146/1 83/130/1 91/147/1
f 89/148/3 92/149/3 81/129/3
f 90/146/8 93/150/8 89/148/8
f 94/151/1 96/152/1 95/153/1
f 97/154/2 99/155/2 98/156/2
f 100/157/3 102/158/3 101/159/3
f 103/160/4 94/161/4 102/162/4
f 101/159/5 94/163/5 95/164/5
f 96/165/6 103/166/6 100/157/6
f 98/167/7 95/153/7 96/152/7
f 104/168/7 95/153/7 105/169/7
f 98/167/7 100/157/7 97/170/7
f 97/170/7 101/159/7 104/168/7
f 105/171/1 99/155/1 106/172/1
f 104/173/3 107/174/3 97/154/3
f 105/171/8 108/175/8 104/173/8
f 109/176/1 111/177/1 110/178/1
f 112/179/2 114/180/2 113/181/2
f 115/182/3 117/183/3 116/184/3
f 118/185/4 109/186/4 117/187/4
f 116/184/5 109/188/5 110/189/5
f 111/190/6 118/191/6 115/182/6
f 113/192/7 110/178/7 111/177/7
f 119/193/7 110/178/7 120/194/7
f 112/195/7 111/177/7 115/182/7
f 112/195/7 116/184/7 119/193/7
f 120/196/1 114/180/1 121/197/1
f 119/198/3 122/199/3 112/179/3
f 120/196/8 123/200/8 119/198/8
f 124/201/1 126/202/1 125/203/1
f 127/204/2 129/205/2 128/206/2
f 130/207/3 132/208/3 131/209/3
f 133/210/4 124/211/4 132/212/4
f 131/209/5 124/213/5 125/214/5
f 130/207/6 134/215/6 133/216/6
f 128/217/7 125/203/7 126/202/7
f 135/218/7 131/209/7 125/203/7
f 128/217/7 130/207/7 127/219/7
f 127/219/7 131/209/7 136/220/7
f 135/221/1 129/205/1 137/222/1
f 136/223/3 138/224/3 127/204/3
f 135/221/8 139/225/8 136/223/8
f 140/226/1 142/227/1 141/228/1
f 143/229/2 145/230/2 144/231/2
f 146/232/3 148/233/3 147/234/3
f 149/235/4 140/236/4 148/237/4
f 147/234/5 140/238/5 141/239/5
f 142/240/6 149/241/6 146/232/6
f 144/242/7 141/228/7 142/227/7
f 150/243/7 141/228/7 151/244/7
f 143/245/7 142/227/7 146/232/7
f 143/245/7 147/234/7 150/243/7
f 151/246/1 145/230/1 152/247/1
f 150/248/3 153/249/3 143/229/3
f 151/246/8 154/250/8 150/248/8
f 155/251/1 157/252/1 156/253/1
f 158/254/2 160/255/2 159/256/2
f 161/257/3 163/258/3 162/259/3
f 164/260/4 155/261/4 163/262/4
f 156/263/5 163/258/5 155/264/5
f 157/265/6 164/266/6 161/257/6
f 159/267/7 156/253/7 157/252/7
f 165/268/7 156/253/7 166/269/7
f 159/267/7 161/257/7 158/270/7
f 158/270/7 162/259/7 165/268/7
f 166/271/1 160/255/1 167/272/1
f 165/273/3 168/274/3 158/254/3
f 166/271/8 169/275/8 165/273/8
f 170/276/1 172/277/1 171/278/1
f 173/279/2 175/280/2 174/281/2
f 176/282/3 178/283/3 177/284/3
f 179/285/4 170/286/4 178/287/4
f 177/284/5 170/288/5 171/289/5
f 172/290/6 179/291/6 176/282/6
f 174/292/7 171/278/7 172/277/7
f 180/293/7 177/284/7 171/278/7
f 174/292/7 176/282/7 173/294/7
f 173/294/7 177/284/7 181/295/7
f 180/296/1 175/280/1 182/297/1
f 181/298/3 183/299/3 173/279/3
f 180/296/8 184/300/8 181/298/8
f 1/1/1 11/301/1 3/2/1
f 4/4/2 15/24/2 6/5/2
f 7/7/3 10/16/3 9/8/3
f 10/10/4 11/302/4 1/11/4
f 8/9/5 9/8/5 1/13/5
f 7/7/6 3/303/6 11/15/6
f 5/17/7 12/18/7 2/3/7
f 12/18/7 13/20/7 8/9/7
f 5/17/7 3/2/7 7/7/7
f 4/19/7 7/7/7 8/9/7
f 12/21/1 5/6/1 6/5/1
f 13/23/3 16/25/3 15/24/3
f 12/21/8 14/22/8 16/25/8
f 17/26/1 185/304/1 19/27/1
f 20/29/2 30/49/2 22/30/2
f 23/32/3 26/41/3 25/33/3
f 26/35/4 185/305/4 17/36/4
f 18/38/5 24/34/5 25/33/5
f 19/40/6 185/306/6 26/41/6
f 21/42/7 28/44/7 18/28/7
f 27/43/7 24/34/7 18/28/7
f 20/45/7 21/42/7 19/27/7
f 20/45/7 23/32/7 24/34/7
f 28/46/1 21/31/1 22/30/1
f 27/48/3 31/50/3 30/49/3
f 28/46/8 29/47/8 31/50/8
f 32/51/1 186/307/1 34/52/1
f 35/54/2 45/74/2 37/55/2
f 38/57/3 41/66/3 40/58/3
f 41/60/4 186/308/4 32/61/4
f 39/59/5 40/58/5 32/63/5
f 34/65/6 186/309/6 41/66/6
f 42/67/7 33/53/7 34/52/7
f 43/69/7 39/59/7 33/53/7
f 35/70/7 36/68/7 34/52/7
f 35/70/7 38/57/7 39/59/7
f 42/71/1 36/56/1 37/55/1
f 43/73/3 46/75/3 45/74/3
f 42/71/8 44/72/8 46/75/8
f 47/76/1 187/310/1 49/77/1
f 50/79/2 60/99/2 52/80/2
f 53/82/3 56/91/3 55/83/3
f 56/85/4 187/311/4 47/86/4
f 48/88/5 54/84/5 55/83/5
f 49/90/6 187/312/6 56/91/6
f 51/92/7 58/94/7 48/78/7
f 57/93/7 54/84/7 48/78/7
f 50/95/7 51/92/7 49/77/7
f 50/95/7 53/82/7 54/84/7
f 58/96/1 51/81/1 52/80/1
f 57/98/3 61/100/3 60/99/3
f 58/96/8 59/97/8 61/100/8
f 62/101/1 71/313/1 64/102/1
f 65/104/2 76/124/2 67/105/2
f 68/107/3 72/116/3 70/108/3
f 70/110/4 72/314/4 71/111/4
f 69/109/5 70/108/5 62/113/5
f 68/107/6 64/315/6 71/115/6
f 66/117/7 73/118/7 63/103/7
f 73/118/7 74/120/7 69/109/7
f 66/117/7 64/102/7 68/107/7
f 65/119/7 68/107/7 69/109/7
f 73/121/1 66/106/1 67/105/1
f 74/123/3 77/125/3 76/124/3
f 73/121/8 75/122/8 77/125/8
f 78/126/1 88/316/1 80/127/1
f 81/129/2 92/149/2 83/130/2
f 84/132/3 87/141/3 86/133/3
f 87/135/4 88/317/4 78/136/4
f 85/134/5 86/133/5 78/138/5
f 84/132/6 80/318/6 88/140/6
f 82/142/7 90/144/7 79/128/7
f 89/143/7 85/134/7 79/128/7
f 82/142/7 80/127/7 84/132/7
f 81/145/7 84/132/7 85/134/7
f 90/146/1 82/131/1 83/130/1
f 89/148/3 93/150/3 92/149/3
f 90/146/8 91/147/8 93/150/8
f 94/151/1 188/319/1 96/152/1
f 97/154/2 107/174/2 99/155/2
f 100/157/3 103/166/3 102/158/3
f 103/160/4 188/320/4 94/161/4
f 101/159/5 102/158/5 94/163/5
f 96/165/6 188/321/6 103/166/6
f 98/167/7 105/169/7 95/153/7
f 104/168/7 101/159/7 95/153/7
f 98/167/7 96/152/7 100/157/7
f 97/170/7 100/157/7 101/159/7
f 105/171/1 98/156/1 99/155/1
f 104/173/3 108/175/3 107/174/3
f 105/171/8 106/172/8 108/175/8
f 109/176/1 189/322/1 111/177/1
f 112/179/2 122/199/2 114/180/2
f 115/182/3 118/191/3 117/183/3
f 118/185/4 189/323/4 109/186/4
f 116/184/5 117/183/5 109/188/5
f 111/190/6 189/324/6 118/191/6
f 113/192/7 120/194/7 110/178/7
f 119/193/7 116/184/7 110/178/7
f 112/195/7 113/192/7 111/177/7
f 112/195/7 115/182/7 116/184/7
f 120/196/1 113/181/1 114/180/1
f 119/198/3 123/200/3 122/199/3
f 120/196/8 121/197/8 123/200/8
f 124/201/1 134/325/1 126/202/1
f 127/204/2 138/224/2 129/205/2
f 130/207/3 133/216/3 132/208/3
f 133/210/4 134/326/4 124/211/4
f 131/209/5 132/208/5 124/213/5
f 130/207/6 126/327/6 134/215/6
f 128/217/7 135/218/7 125/203/7
f 135/218/7 136/220/7 131/209/7
f 128/217/7 126/202/7 130/207/7
f 127/219/7 130/207/7 131/209/7
f 135/221/1 128/206/1 129/205/1
f 136/223/3 139/225/3 138/224/3
f 135/221/8 137/222/8 139/225/8
f 140/226/1 190/328/1 142/227/1
f 143/229/2 153/249/2 145/230/2
f 146/232/3 149/241/3 148/233/3
f 149/235/4 190/329/4 140/236/4
f 147/234/5 148/233/5 140/238/5
f 142/240/6 190/330/6 149/241/6
f 144/242/7 151/244/7 141/228/7
f 150/243/7 147/234/7 141/228/7
f 143/245/7 144/242/7 142/227/7
f 143/245/7 146/232/7 147/234/7
f 151/246/1 144/231/1 145/230/1
f 150/248/3 154/250/3 153/249/3
f 151/246/8 152/247/8 154/250/8
f 155/251/1 191/331/1 157/252/1
f 158/254/2 168/274/2 160/255/2
f 161/257/3 164/266/3 163/258/3
f 164/260/4 191/332/4 155/261/4
f 156/263/5 162/259/5 163/258/5
f 157/265/6 191/333/6 164/266/6
f 159/267/7 166/269/7 156/253/7
f 165/268/7 162/259/7 156/253/7
f 159/267/7 157/252/7 161/257/7
f 158/270/7 161/257/7 162/259/7
f 166/271/1 159/256/1 160/255/1
f 165/273/3 169/275/3 168/274/3
f 166/271/8 167/272/8 169/275/8
f 170/276/1 192/334/1 172/277/1
f 173/279/2 183/299/2 175/280/2
f 176/282/3 179/291/3 178/283/3
f 179/285/4 192/335/4 170/286/4
f 177/284/5 178/283/5 170/288/5
f 172/290/6 192/336/6 179/291/6
f 174/292/7 180/293/7 171/278/7
f 180/293/7 181/295/7 177/284/7
f 174/292/7 172/277/7 176/282/7
f 173/294/7 176/282/7 177/284/7
f 180/296/1 174/281/1 175/280/1
f 181/298/3 184/300/3 183/299/3
f 180/296/8 182/297/8 184/300/8
